<?xml version="1.0" encoding="UTF-8"?>
<svg id="OBJECTS" xmlns="http://www.w3.org/2000/svg" viewBox="-50 -20 807.57 500">
  <defs>
    <style>
      .cls-1 {
        fill: #adc9ed;
        opacity: .56;
      }
    </style>
  </defs>
<path class="cls-1" d="M768.56,370.04v110.74c0,4.15-5.05,6.23-8.01,3.29l-55.81-55.37c-1.83-1.82-1.83-4.77,0-6.58l55.81-55.37c2.96-2.93,8.01-.86,8.01,3.29Z"/>
  <path class="cls-1" d="M766.03,361.25v83.76c0,3.14-3.82,4.71-6.06,2.49l-42.21-41.88c-1.39-1.38-1.39-3.6,0-4.98l42.21-41.88c2.24-2.22,6.06-.65,6.06,2.49Z"/>
  <path class="cls-1" d="M765.73,-45.22v155.27c0,5.82-7.09,8.73-11.23,4.62l-78.25-77.63c-2.57-2.55-2.57-6.68,0-9.23l78.25-77.63c4.14-4.11,11.23-1.2,11.23,4.62Z"/>
</svg>