<?xml version="1.0" encoding="UTF-8"?>
<svg id="OBJECTS" xmlns="http://www.w3.org/2000/svg" viewBox="5 -5 555.99 438.23">
  <defs>
    <style>
      .cls-2 {
        opacity: .43;
      }

      .cls-2, .cls-3, .cls-4 {
        fill: #2857ec;
        isolation: isolate;
      }

      .cls-3 {
        opacity: .84;
      }

      .cls-4 {
        opacity: .29;
      }
    </style>
  </defs>
  <g>
    <path class="cls-2" d="M0,421.21V17.03C0,1.89,18.86-5.69,29.88,5.01l208.19,202.09c6.84,6.64,6.84,17.4,0,24.03L29.88,433.22C18.85,443.92,0,436.34,0,421.2h0Z"/>
    <path class="cls-4" d="M27.92,412.35V67.87c0-12.9,16.07-19.36,25.47-10.24l177.44,172.24c5.83,5.66,5.83,14.83,0,20.48L53.39,422.59c-9.4,9.12-25.47,2.66-25.47-10.24Z"/>
    <path class="cls-3" d="M4.3,410.64V65.23c0-12.94,16.11-19.42,25.54-10.27l177.92,172.7c5.84,5.67,5.84,14.87,0,20.54L29.84,420.9c-9.42,9.15-25.54,2.67-25.54-10.27h0Z"/>
  </g>
</svg>